<?xml version="1.0" standalone="no"?>
<!DOCTYPE svg PUBLIC "-//W3C//DTD SVG 20010904//EN"
 "http://www.w3.org/TR/2001/REC-SVG-20010904/DTD/svg10.dtd">
<svg version="1.0" xmlns="http://www.w3.org/2000/svg"
 width="1214.000000pt" height="1280.000000pt" viewBox="0 0 1214.000000 1280.000000"
 preserveAspectRatio="xMidYMid meet">
<g transform="translate(0.000000,1280.000000) scale(0.100000,-0.100000)"
fill="#e91e63" stroke="none">
<path d="M7630 12738 c-99 -155 -196 -374 -274 -614 -69 -213 -113 -386 -187
-739 l-13 -60 -7 60 c-10 84 -36 433 -59 800 -11 171 -23 357 -26 413 -7 107
-18 132 -53 132 -14 0 -28 -27 -61 -117 -117 -320 -211 -628 -280 -918 -22
-93 -44 -183 -48 -200 -6 -20 -11 27 -16 140 -21 502 -60 777 -138 983 -32 84
-48 103 -48 55 -1 -78 -225 -1163 -240 -1163 -3 0 -16 22 -29 48 -36 72 -187
326 -254 427 -117 175 -171 225 -244 225 -95 0 -145 -126 -173 -430 -13 -145
-13 -844 0 -1174 l10 -249 -46 -56 c-84 -102 -365 -421 -537 -610 -231 -253
-806 -825 -947 -942 -220 -184 -215 -181 -678 -300 -428 -109 -577 -161 -840
-293 -203 -102 -270 -128 -292 -116 -47 25 -109 3 -176 -62 -30 -29 -63 -46
-125 -67 -139 -46 -239 -74 -245 -69 -12 12 -34 182 -45 355 -15 215 -3 413
31 501 11 29 20 70 20 92 0 34 -4 42 -25 52 -33 15 -77 -5 -162 -74 -97 -79
-135 -145 -175 -304 -20 -78 -22 -115 -22 -304 -1 -174 3 -229 18 -290 10 -41
20 -84 23 -96 4 -19 -3 -22 -104 -38 -258 -41 -388 -44 -728 -19 -302 22 -315
22 -347 -2 -16 -11 -40 -45 -55 -75 -27 -53 -28 -60 -28 -217 1 -182 7 -201
76 -234 143 -69 208 -97 237 -103 35 -8 52 -31 52 -71 0 -30 -49 -78 -159
-157 -102 -73 -136 -117 -136 -176 0 -82 33 -129 249 -355 278 -291 330 -322
536 -322 169 1 290 33 629 167 190 76 205 81 235 69 17 -7 67 -15 112 -18 108
-7 219 16 297 64 l58 35 47 -44 c129 -119 321 -253 477 -331 441 -220 795
-150 1057 210 33 46 63 83 67 83 3 0 56 -36 117 -80 239 -171 425 -374 525
-573 79 -155 109 -267 109 -402 0 -78 -24 -213 -42 -230 -2 -2 -49 13 -104 35
-426 167 -964 223 -1589 164 -173 -16 -356 -38 -449 -55 -32 -6 -62 -7 -66 -2
-8 9 -75 181 -112 286 -22 63 -25 67 -54 67 l-31 0 -12 -87 c-7 -49 -16 -137
-21 -197 -5 -60 -11 -111 -14 -113 -3 -3 -53 -12 -112 -21 l-107 -16 -29 34
c-44 53 -186 271 -264 405 l-69 120 -8 -120 c-7 -118 5 -360 22 -437 8 -35 7
-36 -22 -42 -48 -10 -320 -7 -425 4 -111 12 -273 49 -351 79 -29 12 -121 55
-204 95 -161 79 -215 96 -297 96 -118 0 -154 -62 -99 -171 21 -41 260 -302
368 -400 113 -104 251 -178 405 -218 157 -41 311 -54 556 -47 124 3 237 9 251
12 24 5 30 -1 74 -73 49 -80 176 -261 259 -367 25 -33 46 -63 46 -68 0 -4 -51
-8 -114 -8 -386 0 -623 -74 -687 -215 -77 -169 87 -431 331 -528 161 -63 145
-62 819 -59 781 4 1169 -14 1253 -59 11 -6 126 -87 256 -180 l237 -169 3 170
2 170 102 -51 c220 -110 432 -237 604 -359 l99 -71 7 58 c13 111 -16 241 -81
368 -20 39 -37 73 -39 77 -6 12 196 -101 313 -174 137 -87 289 -197 414 -301
l96 -79 8 73 c16 161 -18 346 -93 506 l-39 85 32 -21 c353 -223 654 -760 723
-1286 9 -66 17 -121 18 -122 8 -9 169 135 205 183 38 52 86 141 105 198 4 10
8 17 11 15 2 -3 9 -126 15 -274 12 -294 2 -719 -25 -1049 -8 -99 -13 -181 -11
-183 6 -6 132 141 191 222 31 44 88 143 126 220 l69 140 -6 -55 c-12 -118 -56
-491 -97 -815 l-43 -340 25 -3 c17 -3 32 4 46 21 11 13 63 75 116 138 214 256
375 512 474 754 21 50 39 92 41 94 2 2 2 -31 -1 -75 -22 -318 -43 -517 -69
-664 -7 -41 -13 -76 -12 -77 1 -1 42 26 92 60 260 178 387 320 505 562 60 124
127 306 149 408 8 32 16 60 20 62 15 9 41 -275 56 -612 l7 -152 45 32 c412
291 784 686 1183 1257 539 769 1113 1899 1524 3000 149 399 205 583 389 1280
145 549 213 786 292 1007 66 187 170 409 242 516 29 42 49 78 44 80 -25 16
-144 29 -220 24 -125 -8 -242 -48 -599 -203 -18 -8 -33 -12 -33 -10 0 9 137
184 254 326 153 184 319 370 519 582 92 98 157 174 157 186 0 25 -39 32 -193
32 -257 0 -536 -92 -777 -258 -24 -16 -24 -16 4 23 159 215 488 585 750 844
l136 134 -93 -7 c-312 -23 -765 -182 -1166 -410 -35 -20 -65 -35 -67 -33 -6 6
163 225 271 352 113 132 346 366 470 472 113 96 230 185 377 288 70 49 126 90
125 92 -10 9 -359 -19 -448 -37 -237 -46 -472 -140 -721 -290 -21 -12 -38 -19
-38 -15 0 18 300 418 419 560 98 116 285 308 399 410 50 44 89 81 87 83 -8 9
-372 -77 -485 -114 -167 -56 -419 -179 -565 -276 -60 -40 -116 -77 -124 -82
-9 -6 -7 3 6 25 11 19 55 93 98 164 119 198 276 429 482 709 l103 140 -22 23
-21 23 -151 -79 c-184 -96 -399 -224 -696 -415 -153 -99 -227 -141 -232 -133
-4 7 -8 29 -8 49 0 30 27 80 148 275 217 350 307 489 405 628 48 69 87 129 87
133 0 5 -8 16 -18 26 -18 15 -25 13 -128 -36 -60 -28 -189 -94 -287 -145 -97
-51 -179 -93 -181 -93 -5 0 29 155 60 270 14 52 54 172 89 265 74 202 81 232
61 280 -53 126 -293 30 -831 -333 -110 -74 -226 -155 -258 -180 -32 -24 -61
-41 -64 -38 -4 3 -9 189 -12 413 l-6 406 -82 -139 c-215 -367 -394 -774 -517
-1178 -42 -140 -51 -165 -60 -155 -1 2 -8 299 -15 659 -6 360 -15 673 -19 695
l-7 39 -99 -138 c-182 -253 -326 -513 -429 -777 -51 -129 -117 -339 -117 -372
0 -12 -4 -17 -9 -12 -10 12 -28 202 -41 440 -5 94 -10 356 -10 583 l0 412 -25
0 c-20 0 -34 -13 -65 -62z m-4474 -6213 c44 -8 99 -21 124 -29 l45 -13 -35
-22 c-70 -43 -186 -55 -294 -31 -62 14 -206 70 -206 81 0 4 26 10 58 14 31 3
64 8 72 9 41 9 167 4 236 -9z m993 -1970 c-82 -45 -389 -156 -828 -301 l-314
-104 -73 66 c-95 84 -284 298 -273 308 4 3 559 33 739 39 41 2 233 4 425 5
304 1 347 -1 324 -13z"/>
</g>
</svg>
